Coordinates
version=1
nRows=60
nColumns=12
inDegrees=yes

Units are S.I. units (second, meters, Newtons, ...)
Angles are in degrees

endheader
time	SC_y	SC_z	SC_x	AC_y	AC_z	AC_x	GH_y	GH_z	GH_yy	EL_x	PS_y
       0.0              -57.12          14.78          25.56          44.03          7.725         -6.789          152.1           1.52          19.32          113.3          36.29
  0.003557              -57.12          14.78          25.56          44.03          7.724         -6.787          152.1          1.524          19.32          113.2          36.29
  0.007114              -57.12          14.78          25.57          44.04          7.724         -6.786          152.0          1.528          19.33          113.2          36.29
   0.01067              -57.12          14.79          25.57          44.04          7.723         -6.784          152.0          1.532          19.34          113.2           36.3
   0.01423              -57.12          14.79          25.58          44.04          7.723         -6.782          151.9          1.537          19.35          113.2           36.3
   0.01778              -57.12           14.8          25.58          44.05          7.722          -6.78          151.9          1.542          19.36          113.2           36.3
   0.02134              -57.11           14.8          25.59          44.05          7.722         -6.778          151.8          1.547          19.38          113.2           36.3
    0.0249              -57.11           14.8          25.59          44.05          7.721         -6.775          151.8          1.553          19.39          113.1           36.3
   0.02845              -57.11          14.81           25.6          44.06           7.72         -6.773          151.7          1.559           19.4          113.1           36.3
   0.03201              -57.11          14.81          25.61          44.06           7.72          -6.77          151.7          1.565          19.42          113.1           36.3
   0.03557              -57.11          14.82          25.61          44.07          7.719         -6.767          151.6          1.572          19.43          113.1           36.3
   0.03913              -57.11          14.83          25.62          44.07          7.718         -6.764          151.6           1.58          19.45          113.1          36.31
   0.04268              -57.11          14.83          25.63          44.08          7.717          -6.76          151.5          1.588          19.47          113.0          36.31
   0.04624               -57.1          14.84          25.64          44.08          7.716         -6.756          151.4          1.596          19.49          113.0          36.31
    0.0498               -57.1          14.85          25.65          44.09          7.715         -6.752          151.3          1.606          19.51          113.0          36.31
   0.05335               -57.1          14.85          25.66          44.09          7.714         -6.748          151.3          1.616          19.53          112.9          36.31
   0.05691               -57.1          14.86          25.67           44.1          7.713         -6.743          151.2          1.627          19.55          112.9          36.32
   0.06047              -57.09          14.87          25.68          44.11          7.712         -6.738          151.0          1.639          19.58          112.9          36.32
   0.06402              -57.09          14.88           25.7          44.12          7.711         -6.732          150.9          1.652          19.61          112.8          36.32
   0.06758              -57.09          14.89          25.71          44.13          7.709         -6.726          150.8          1.667          19.64          112.8          36.33
   0.07114              -57.08          14.91          25.73          44.14          7.707          -6.72          150.7          1.682          19.68          112.7          36.33
   0.07469              -57.08          14.92          25.74          44.15          7.705         -6.712          150.5            1.7          19.71          112.7          36.33
   0.07825              -57.07          14.94          25.76          44.16          7.703         -6.704          150.4          1.719          19.76          112.6          36.34
   0.08181              -57.07          14.95          25.79          44.17          7.701         -6.695          150.2           1.74           19.8          112.5          36.34
   0.08536              -57.06          14.97          25.81          44.19          7.699         -6.684          150.0          1.764          19.86          112.5          36.35
   0.08892              -57.06          14.99          25.84          44.21          7.696         -6.673          149.7           1.79          19.92          112.4          36.35
   0.09248              -57.05          15.02          25.87          44.22          7.693          -6.66          149.5           1.82          19.98          112.3          36.36
   0.09603              -57.04          15.04           25.9          44.25          7.689         -6.646          149.2          1.853          20.06          112.2          36.37
   0.09959              -57.03          15.07          25.94          44.27          7.685          -6.63          148.8          1.891          20.14          112.0          36.38
    0.1031              -57.02          15.11          25.99           44.3          7.681         -6.612          148.5          1.934          20.23          111.9          36.39
    0.1067              -57.01          15.15          26.04          44.33          7.675         -6.591          148.1          1.983          20.34          111.7           36.4
    0.1103               -57.0          15.19          26.09          44.37          7.669         -6.567          147.6          2.039          20.47          111.6          36.41
    0.1138              -56.98          15.24          26.16          44.41          7.663         -6.539          147.0          2.103          20.61          111.4          36.43
    0.1174              -56.96           15.3          26.24          44.46          7.655         -6.507          146.3          2.178          20.78          111.1          36.44
    0.1209              -56.94          15.37          26.33          44.51          7.645         -6.469          145.6          2.266          20.97          110.8          36.46
    0.1245              -56.92          15.46          26.43          44.58          7.634         -6.425          144.7           2.37           21.2          110.5          36.49
     0.128              -56.89          15.55          26.56          44.66          7.621         -6.372          143.6          2.493          21.48          110.1          36.52
    0.1316              -56.85          15.67          26.71          44.75          7.606         -6.309          142.3          2.641           21.8          109.6          36.55
    0.1352              -56.81          15.81           26.9          44.87          7.587         -6.232          140.8          2.819           22.2          109.0          36.59
    0.1387              -56.76          15.99          27.12          45.01          7.563         -6.138          138.9          3.037          22.68          108.3          36.64
    0.1423              -56.69           16.2           27.4          45.18          7.535         -6.023          136.5          3.307          23.28          107.4           36.7
    0.1458              -56.61          16.47          27.74           45.4          7.499         -5.879          133.6          3.642          24.03          106.3          36.78
    0.1494              -56.51          16.81          28.18          45.67          7.454         -5.698          129.9          4.065          24.97          105.0          36.87
    0.1529              -56.38          17.24          28.73          46.02          7.397         -5.467          125.2          4.603          26.16          103.2           37.0
    0.1565              -56.21          17.78          29.44          46.46          7.324         -5.172          119.2          5.291          27.69          101.0          37.15
    0.1601               -56.0          18.49          30.35          47.03           7.23         -4.793          111.5          6.174          29.65          98.08          37.36
    0.1636              -55.73          19.39          31.51          47.76          7.111          -4.31          101.7          7.302          32.15           94.4          37.61
    0.1672              -55.39          20.52          32.97          48.67           6.96         -3.701          89.29          8.721           35.3          89.77          37.94
    0.1707              -54.97          21.89          34.75          49.78          6.776          -2.96          74.21          10.45          39.14          84.14          38.33
    0.1743              -54.49          23.49          36.81          51.07          6.564         -2.101          56.74          12.45          43.58           77.6          38.79
    0.1778              -53.97          25.22          39.04          52.47          6.333         -1.171          37.82          14.62           48.4          70.53          39.29
    0.1814              -53.44          26.95          41.28          53.87          6.103        -0.2403           18.9          16.79          53.21          63.45          39.78
     0.185              -52.96          28.55          43.34          55.16           5.89         0.6189          1.427          18.79          57.66          56.92          40.24
    0.1885              -52.55          29.92          45.12          56.27          5.707           1.36         -13.65          20.52           61.5          51.28          40.64
    0.1921               -52.2          31.05          46.58          57.19          5.556          1.968         -26.02          21.94          64.65          46.66          40.96
    0.1956              -51.93          31.95          47.74          57.91          5.436          2.452         -35.86          23.07          67.15          42.98          41.22
    0.1992              -51.72          32.66          48.65          58.48          5.342          2.831         -43.56          23.95          69.11           40.1          41.42
    0.2027              -51.55          33.21          49.35          58.92          5.269          3.126         -49.56          24.64          70.64          37.86          41.58
    0.2063              -51.43          33.63          49.91          59.27          5.212          3.356         -54.25          25.18          71.83           36.1           41.7
    0.2099              -51.32          33.97          50.34          59.54          5.167          3.538         -57.94           25.6          72.77          34.72           41.8
